<svg width="29" height="29" viewBox="0 0 29 29" fill="none" xmlns="http://www.w3.org/2000/svg">
<path fill-rule="evenodd" clip-rule="evenodd" d="M22.2782 8.84312L20.1569 6.7218L14.5 12.3786L8.84315 6.72179L6.72183 8.84312L12.3787 14.5L6.72183 20.1568L8.84315 22.2781L14.5 16.6213L20.1569 22.2781L22.2782 20.1568L16.6213 14.5L22.2782 8.84312Z" fill="white"/>
<path d="M20.1569 6.7218L20.422 6.45663L20.1569 6.19147L19.8917 6.45663L20.1569 6.7218ZM22.2782 8.84312L22.5433 9.10828L22.8085 8.84312L22.5433 8.57795L22.2782 8.84312ZM14.5 12.3786L14.2348 12.6438L14.5 12.909L14.7652 12.6438L14.5 12.3786ZM8.84315 6.72179L9.10831 6.45663L8.84315 6.19146L8.57798 6.45663L8.84315 6.72179ZM6.72183 8.84312L6.45666 8.57795L6.1915 8.84312L6.45666 9.10828L6.72183 8.84312ZM12.3787 14.5L12.6438 14.7651L12.909 14.5L12.6438 14.2348L12.3787 14.5ZM6.72183 20.1568L6.45666 19.8917L6.1915 20.1568L6.45666 20.422L6.72183 20.1568ZM8.84315 22.2781L8.57798 22.5433L8.84315 22.8085L9.10831 22.5433L8.84315 22.2781ZM14.5 16.6213L14.7652 16.3561L14.5 16.091L14.2348 16.3561L14.5 16.6213ZM20.1569 22.2781L19.8917 22.5433L20.1569 22.8085L20.422 22.5433L20.1569 22.2781ZM22.2782 20.1568L22.5433 20.422L22.8085 20.1568L22.5433 19.8917L22.2782 20.1568ZM16.6213 14.5L16.3562 14.2348L16.091 14.5L16.3562 14.7651L16.6213 14.5ZM19.8917 6.98696L22.013 9.10828L22.5433 8.57795L20.422 6.45663L19.8917 6.98696ZM14.7652 12.6438L20.422 6.98696L19.8917 6.45663L14.2348 12.1135L14.7652 12.6438ZM8.57798 6.98696L14.2348 12.6438L14.7652 12.1135L9.10831 6.45663L8.57798 6.98696ZM6.98699 9.10828L9.10831 6.98696L8.57798 6.45663L6.45666 8.57795L6.98699 9.10828ZM12.6438 14.2348L6.98699 8.57795L6.45666 9.10828L12.1135 14.7651L12.6438 14.2348ZM6.98699 20.422L12.6438 14.7651L12.1135 14.2348L6.45666 19.8917L6.98699 20.422ZM9.10831 22.013L6.98699 19.8917L6.45666 20.422L8.57798 22.5433L9.10831 22.013ZM14.2348 16.3561L8.57798 22.013L9.10831 22.5433L14.7652 16.8865L14.2348 16.3561ZM20.422 22.013L14.7652 16.3561L14.2348 16.8865L19.8917 22.5433L20.422 22.013ZM22.013 19.8917L19.8917 22.013L20.422 22.5433L22.5433 20.422L22.013 19.8917ZM16.3562 14.7651L22.013 20.422L22.5433 19.8917L16.8865 14.2348L16.3562 14.7651ZM22.013 8.57795L16.3562 14.2348L16.8865 14.7651L22.5433 9.10828L22.013 8.57795Z" fill="black"/>
</svg>
