<svg width="21" height="21" viewBox="0 0 21 21" fill="none" xmlns="http://www.w3.org/2000/svg">
<path fill-rule="evenodd" clip-rule="evenodd" d="M11.9926 2.50006L8.99261 2.50006L8.99262 14.2426L4.12871 9.37874L2.00739 11.5001L10.4927 19.9853L12.614 17.864L12.614 17.864L18.978 11.5L16.8566 9.37872L11.9926 14.2427L11.9926 2.50006Z" fill="white"/>
<path d="M8.99261 2.50006L8.99261 2.12506L8.61761 2.12506L8.61761 2.50006L8.99261 2.50006ZM11.9926 2.50006L12.3676 2.50006L12.3676 2.12506L11.9926 2.12506L11.9926 2.50006ZM8.99262 14.2426L8.72745 14.5078L9.36762 15.148L9.36762 14.2426L8.99262 14.2426ZM4.12871 9.37874L4.39387 9.11358L4.12871 8.84841L3.86354 9.11358L4.12871 9.37874ZM2.00739 11.5001L1.74222 11.2349L1.47706 11.5001L1.74222 11.7652L2.00739 11.5001ZM10.4927 19.9853L10.2275 20.2505L10.4927 20.5157L10.7578 20.2505L10.4927 19.9853ZM12.614 17.864L12.8792 18.1292L13.1443 17.864L12.8792 17.5989L12.614 17.864ZM12.614 17.864L12.3488 17.5988L12.0837 17.864L12.3488 18.1292L12.614 17.864ZM18.978 11.5L19.2431 11.7652L19.5083 11.5L19.2431 11.2349L18.978 11.5ZM16.8566 9.37872L17.1218 9.11356L16.8566 8.84839L16.5915 9.11356L16.8566 9.37872ZM11.9926 14.2427L11.6176 14.2427L11.6176 15.1481L12.2578 14.5079L11.9926 14.2427ZM8.99261 2.87506L11.9926 2.87506L11.9926 2.12506L8.99261 2.12506L8.99261 2.87506ZM9.36762 14.2426L9.36761 2.50006L8.61761 2.50006L8.61762 14.2426L9.36762 14.2426ZM9.25778 13.9775L4.39387 9.11358L3.86354 9.64391L8.72745 14.5078L9.25778 13.9775ZM3.86354 9.11358L1.74222 11.2349L2.27255 11.7652L4.39387 9.64391L3.86354 9.11358ZM1.74222 11.7652L10.2275 20.2505L10.7578 19.7202L2.27255 11.2349L1.74222 11.7652ZM10.7578 20.2505L12.8792 18.1292L12.3488 17.5989L10.2275 19.7202L10.7578 20.2505ZM12.8792 17.5989L12.8791 17.5988L12.3488 18.1292L12.3488 18.1292L12.8792 17.5989ZM12.8791 18.1292L19.2431 11.7652L18.7128 11.2349L12.3488 17.5988L12.8791 18.1292ZM19.2431 11.2349L17.1218 9.11356L16.5915 9.64389L18.7128 11.7652L19.2431 11.2349ZM16.5915 9.11356L11.7275 13.9776L12.2578 14.5079L17.1218 9.64389L16.5915 9.11356ZM11.6176 2.50006L11.6176 14.2427L12.3676 14.2427L12.3676 2.50006L11.6176 2.50006Z" fill="black"/>
</svg>
