<svg id="Livello_1" data-name="Livello 1" xmlns="http://www.w3.org/2000/svg" viewBox="0 0 87.84 53.86"><rect width="10.87" height="53.86" style="fill:#fff"/><polygon points="19.03 17.4 10.87 24.91 26.15 53.86 37.75 53.86 19.03 17.4" style="fill:#fff"/><polygon points="52.33 0 42.61 0 37.94 0 22.36 14.34 26.97 23.33 42.61 8.95 42.61 53.86 53.47 53.86 53.47 0 52.33 0" style="fill:#fff"/><path d="M61.16,38.27a11.2,11.2,0,0,0,10.49-7,11.34,11.34,0,0,0,.85-4.34,10.58,10.58,0,0,0-1-4.3,11.93,11.93,0,0,0-2.49-3.58,12.26,12.26,0,0,0-3.57-2.51,10.63,10.63,0,0,0-4.31-1,11.2,11.2,0,0,0-4.35.85,11.56,11.56,0,0,0-3.35,2.13v1.32c.11-.11.21-.23.31-.34a10.63,10.63,0,0,1,3.39-2.27,10.36,10.36,0,0,1,4-.81,11,11,0,0,1,4,.7A9.57,9.57,0,0,1,71,22.89a11.25,11.25,0,0,1,.7,4.05,10.61,10.61,0,0,1-.82,4,10.53,10.53,0,0,1-9.67,6.48,11.22,11.22,0,0,1-4.05-.7,9.9,9.9,0,0,1-3.5-2.24l-.15-.17V35a12.06,12.06,0,0,0,3.39,2.31A10.62,10.62,0,0,0,61.16,38.27Z" style="fill:#fff"/><path d="M57.52,35.74a8.9,8.9,0,0,0,3.65.83,9.55,9.55,0,0,0,3.69-.72,9.54,9.54,0,0,0,5.93-8.91A8.81,8.81,0,0,0,70,23.29a10.74,10.74,0,0,0-2.12-3,10.44,10.44,0,0,0-3-2.13,8.75,8.75,0,0,0-3.65-.84,9.79,9.79,0,0,0-3.7.72,9.49,9.49,0,0,0-3.14,2.09,9.34,9.34,0,0,0-.86,1v1.66a8.79,8.79,0,0,1,1.52-2,8.65,8.65,0,0,1,2.83-1.9,8.77,8.77,0,0,1,3.35-.69,9.62,9.62,0,0,1,3.39.57,8,8,0,0,1,4.82,4.8,9.46,9.46,0,0,1,.57,3.4,8.81,8.81,0,0,1-.68,3.36,8.92,8.92,0,0,1-1.92,2.83A8.53,8.53,0,0,1,64.52,35a8.77,8.77,0,0,1-3.35.69,9.65,9.65,0,0,1-3.4-.58,7.84,7.84,0,0,1-4.3-3.7v1a11.63,11.63,0,0,0,1,1.19A10.27,10.27,0,0,0,57.52,35.74Z" style="fill:#fff"/><path d="M79.9,8.21a27.4,27.4,0,0,0-8.55-5.83A26,26,0,0,0,61.17.24a26.83,26.83,0,0,0-7.7,1.13v.95a25.79,25.79,0,0,1,7.7-1.19A26.55,26.55,0,0,1,71.09,3a24.87,24.87,0,0,1,14,14A26.45,26.45,0,0,1,87,26.94,25.92,25.92,0,0,1,61.16,52.78a26.45,26.45,0,0,1-7.69-1.11v.75a26.39,26.39,0,0,0,7.69,1.2A26.6,26.6,0,0,0,87.84,26.94a25.92,25.92,0,0,0-2.12-10.17A27.36,27.36,0,0,0,79.9,8.21Z" style="fill:#fff"/><path d="M61.16,41.68A14.59,14.59,0,0,0,74.8,32.59a14.82,14.82,0,0,0,1.11-5.65,14,14,0,0,0-1.22-5.6,15.23,15.23,0,0,0-3.23-4.69,15.6,15.6,0,0,0-4.68-3.25,14,14,0,0,0-5.61-1.22,14.5,14.5,0,0,0-7.7,2.16v1.07a14.86,14.86,0,0,1,2.39-1.28,13.83,13.83,0,0,1,5.31-1.07,14.66,14.66,0,0,1,5.35.95,13,13,0,0,1,7.59,7.57,14.72,14.72,0,0,1,1,5.36,14,14,0,0,1-8.59,12.83,13.85,13.85,0,0,1-5.32,1.07,14.46,14.46,0,0,1-5.35-1,13.5,13.5,0,0,1-2.34-1.18v.62a16.3,16.3,0,0,0,2.09,1.15A14.16,14.16,0,0,0,61.16,41.68Z" style="fill:#fff"/><path d="M61.17,34.86a7.84,7.84,0,0,0,7.92-7.92,8,8,0,0,0-2.45-5.47A7.9,7.9,0,0,0,61.17,19a8,8,0,0,0-5.64,2.3A8.08,8.08,0,0,0,53.47,25v3.57a8.5,8.5,0,0,0,2.22,3.8A7.93,7.93,0,0,0,61.17,34.86ZM56.2,22A6.92,6.92,0,1,1,56,32.08,7.32,7.32,0,0,1,56.2,22Z" style="fill:#fff"/><path d="M61.16,40a13.18,13.18,0,0,0,5-1,12.94,12.94,0,0,0,8-12.06,12.34,12.34,0,0,0-1.08-5,14.09,14.09,0,0,0-7-7,12.24,12.24,0,0,0-5-1.1,13.18,13.18,0,0,0-5,1,13.77,13.77,0,0,0-2.7,1.52v1.16a11.83,11.83,0,0,1,3.05-1.83,12.12,12.12,0,0,1,4.65-1,13.09,13.09,0,0,1,4.7.83,11.35,11.35,0,0,1,6.66,6.65,12.84,12.84,0,0,1,.83,4.7,12.26,12.26,0,0,1-12.2,12.2,13.06,13.06,0,0,1-4.7-.84,11.9,11.9,0,0,1-3-1.68v.62a13.85,13.85,0,0,0,2.74,1.65A12.39,12.39,0,0,0,61.16,40Z" style="fill:#fff"/><path d="M70.07,48.45A23.18,23.18,0,0,0,84.43,26.94a22.44,22.44,0,0,0-1.86-8.86A24.3,24.3,0,0,0,70,5.53a22.51,22.51,0,0,0-8.87-1.88A23.57,23.57,0,0,0,53.47,5v1a22.27,22.27,0,0,1,7.7-1.4,23.16,23.16,0,0,1,8.62,1.6A21.94,21.94,0,0,1,77.16,11,21.71,21.71,0,0,1,82,18.32a23,23,0,0,1,1.61,8.62A22.35,22.35,0,0,1,77,42.77a22.3,22.3,0,0,1-7.26,4.87,22.55,22.55,0,0,1-8.58,1.73,23.22,23.22,0,0,1-7.69-1.3v.74a22.69,22.69,0,0,0,7.69,1.4A23.43,23.43,0,0,0,70.07,48.45Z" style="fill:#fff"/><path d="M70.73,50a25.22,25.22,0,0,0,8.12-5.41,25,25,0,0,0,7.29-17.68,24.49,24.49,0,0,0-2-9.52A26,26,0,0,0,70.7,4a24.33,24.33,0,0,0-9.53-2,25.23,25.23,0,0,0-7.7,1.21v1a24.33,24.33,0,0,1,7.7-1.28,25,25,0,0,1,9.27,1.73A23.28,23.28,0,0,1,83.56,17.67a24.77,24.77,0,0,1,1.74,9.27A24.19,24.19,0,0,1,61.16,51.07a24.84,24.84,0,0,1-7.69-1.18v.73a24.81,24.81,0,0,0,7.69,1.29A25.15,25.15,0,0,0,70.73,50Z" style="fill:#fff"/><path d="M61.16,43.39A16.38,16.38,0,0,0,77.61,26.94a15.81,15.81,0,0,0-1.34-6.26,17.5,17.5,0,0,0-8.84-8.85,15.83,15.83,0,0,0-6.26-1.36,16.69,16.69,0,0,0-6.31,1.24c-.47.2-.93.42-1.39.66v1.06a14.94,14.94,0,0,1,1.74-.88,15.81,15.81,0,0,1,6-1.2,16.43,16.43,0,0,1,6,1.09,14.75,14.75,0,0,1,8.51,8.49,16.11,16.11,0,0,1,1.09,6,15.49,15.49,0,0,1-1.2,6,15.81,15.81,0,0,1-3.39,5,15.66,15.66,0,0,1-11,4.6,16.27,16.27,0,0,1-6-1.1,13.64,13.64,0,0,1-1.69-.79v.67a16,16,0,0,0,1.44.71A15.77,15.77,0,0,0,61.16,43.39Z" style="fill:#fff"/><path d="M69.42,46.88A21.53,21.53,0,0,0,82.73,26.94,21,21,0,0,0,81,18.73,22.57,22.57,0,0,0,69.39,7.1a20.9,20.9,0,0,0-8.22-1.74,21.62,21.62,0,0,0-7.7,1.43v1a21,21,0,0,1,7.7-1.51,21.48,21.48,0,0,1,8,1.47A19.86,19.86,0,0,1,80.41,19a21.38,21.38,0,0,1,1.48,8A20.77,20.77,0,0,1,61.16,47.66a21.35,21.35,0,0,1-7.69-1.39V47a20.69,20.69,0,0,0,7.69,1.54A21.86,21.86,0,0,0,69.42,46.88Z" style="fill:#fff"/><path d="M61.16,46.8A19.75,19.75,0,0,0,79.53,34.55,19.88,19.88,0,0,0,81,26.94a19.06,19.06,0,0,0-1.6-7.56A20.91,20.91,0,0,0,68.74,8.68a19.09,19.09,0,0,0-7.57-1.62,20.08,20.08,0,0,0-7.61,1.5l-.09,0v1l.44-.21A19,19,0,0,1,61.17,8a19.69,19.69,0,0,1,7.31,1.34A18.17,18.17,0,0,1,78.83,19.63a19.46,19.46,0,0,1,1.35,7.31A19.11,19.11,0,0,1,68.43,44.49,19.07,19.07,0,0,1,61.16,46a19.74,19.74,0,0,1-7.31-1.36l-.38-.17v.7l.13.06A19.24,19.24,0,0,0,61.16,46.8Z" style="fill:#fff"/><path d="M61.16,45.09A18.11,18.11,0,0,0,79.32,26.94,17.46,17.46,0,0,0,77.84,20a18.76,18.76,0,0,0-4-5.79,19.14,19.14,0,0,0-5.79-4,17.3,17.3,0,0,0-6.92-1.48,18.07,18.07,0,0,0-7,1.37c-.25.1-.49.23-.74.35v1c.36-.18.72-.37,1.09-.52a17.45,17.45,0,0,1,6.61-1.33,18.1,18.1,0,0,1,6.66,1.21,16.45,16.45,0,0,1,9.43,9.42,17.9,17.9,0,0,1,1.22,6.66,17.44,17.44,0,0,1-10.7,16,17.46,17.46,0,0,1-6.62,1.33A17.9,17.9,0,0,1,54.5,43c-.35-.14-.69-.31-1-.47v.67c.26.13.52.27.78.39A17.45,17.45,0,0,0,61.16,45.09Z" style="fill:#fff"/></svg>