<?xml version="1.0" encoding="utf-8"?>
<!-- Generator: Adobe Illustrator 25.4.1, SVG Export Plug-In . SVG Version: 6.00 Build 0)  -->
<svg version="1.1" id="Livello_1" xmlns="http://www.w3.org/2000/svg" xmlns:xlink="http://www.w3.org/1999/xlink" x="0px" y="0px"
	 viewBox="0 0 88 54" style="enable-background:new 0 0 88 54;" xml:space="preserve">
<style type="text/css">
	.st0{fill:#FFFFFF;}
</style>
<rect class="st0" width="10.9" height="54"/>
<polygon class="st0" points="19.1,17.4 10.9,25 26.2,54 37.8,54 "/>
<polygon class="st0" points="52.4,0 42.7,0 38,0 22.4,14.4 27,23.4 42.7,9 42.7,54 53.6,54 53.6,0 "/>
<path class="st0" d="M61.3,38.4c4.6,0,8.8-2.7,10.5-7c0.6-1.4,0.9-2.9,0.9-4.4c0-1.5-0.4-3-1-4.3c-0.6-1.3-1.4-2.6-2.5-3.6
	c-1-1-2.2-1.9-3.6-2.5c-1.4-0.6-2.8-1-4.3-1c-1.5,0-3,0.3-4.4,0.9c-1.2,0.5-2.4,1.2-3.4,2.1v1.3c0.1-0.1,0.2-0.2,0.3-0.3
	c1-1,2.1-1.7,3.4-2.3c1.3-0.5,2.6-0.8,4-0.8c1.4,0,2.7,0.2,4,0.7c2.7,0.9,4.9,3.1,5.9,5.8c0.5,1.3,0.7,2.7,0.7,4.1
	c0,1.4-0.3,2.7-0.8,4c-1.6,3.9-5.4,6.5-9.7,6.5c-1.4,0-2.8-0.2-4.1-0.7c-1.3-0.5-2.5-1.3-3.5-2.2l-0.2-0.2v0.7c1,1,2.1,1.7,3.4,2.3
	C58.3,38,59.8,38.3,61.3,38.4z"/>
<path class="st0" d="M57.6,35.8c1.1,0.5,2.4,0.8,3.7,0.8c1.3,0,2.5-0.2,3.7-0.7c3.6-1.5,6-5,5.9-8.9c0-1.3-0.3-2.5-0.8-3.7
	c-0.5-1.1-1.2-2.1-2.1-3c-0.9-0.9-1.9-1.6-3-2.1c-1.1-0.5-2.4-0.8-3.7-0.8c-1.3,0-2.5,0.2-3.7,0.7c-1.2,0.5-2.2,1.2-3.1,2.1
	c-0.3,0.3-0.6,0.6-0.9,1v1.7c0.4-0.7,0.9-1.4,1.5-2c0.8-0.8,1.8-1.5,2.8-1.9c1.1-0.4,2.2-0.7,3.4-0.7c1.2,0,2.3,0.2,3.4,0.6
	c2.2,0.8,4,2.6,4.8,4.8c0.4,1.1,0.6,2.2,0.6,3.4c0,1.2-0.2,2.3-0.7,3.4c-0.5,1.1-1.1,2-1.9,2.8c-0.8,0.8-1.8,1.4-2.9,1.8
	c-1.1,0.4-2.2,0.7-3.4,0.7c-1.2,0-2.3-0.2-3.4-0.6c-1.8-0.7-3.4-2-4.3-3.7v1c0.3,0.4,0.6,0.8,1,1.2C55.4,34.6,56.5,35.3,57.6,35.8z"
	/>
<path class="st0" d="M80,8.2c-2.5-2.5-5.4-4.5-8.6-5.8C68.3,1,64.8,0.3,61.3,0.2c-2.6,0-5.2,0.4-7.7,1.1v1c2.5-0.8,5.1-1.2,7.7-1.2
	c3.4,0,6.8,0.6,9.9,1.9c6.4,2.5,11.5,7.6,14,14c1.3,3.2,1.9,6.6,1.9,10c0,14.3-11.6,25.9-25.9,25.9c-2.6,0-5.2-0.4-7.7-1.1v0.8
	c2.5,0.8,5.1,1.2,7.7,1.2C76,53.8,88,41.9,88,27.2c0-0.1,0-0.1,0-0.2c0-3.5-0.7-7-2.1-10.2C84.5,13.6,82.5,10.7,80,8.2z"/>
<path class="st0" d="M61.3,41.8c6,0.1,11.4-3.6,13.7-9.1c0.7-1.8,1.1-3.7,1.1-5.7c0-1.9-0.4-3.8-1.2-5.6c-0.8-1.8-1.9-3.4-3.2-4.7
	c-1.3-1.4-2.9-2.5-4.7-3.3c-1.8-0.8-3.7-1.2-5.6-1.2c-2.7,0-5.4,0.7-7.7,2.2v1.1c0.8-0.5,1.6-0.9,2.4-1.3c1.7-0.7,3.5-1.1,5.3-1.1
	c1.8,0,3.6,0.3,5.4,1c3.5,1.3,6.3,4.1,7.6,7.6c0.7,1.7,1,3.5,1,5.4c0,5.6-3.4,10.7-8.6,12.9c-1.7,0.7-3.5,1.1-5.3,1.1
	c-1.8,0-3.7-0.3-5.4-1c-0.8-0.3-1.6-0.7-2.3-1.2v0.6c0.7,0.4,1.4,0.8,2.1,1.2C57.5,41.3,59.3,41.8,61.3,41.8z"/>
<path class="st0" d="M61.3,35c4.3,0,7.9-3.4,7.9-7.8c0-0.1,0-0.1,0-0.2c-0.1-2.1-1-4-2.5-5.5c-1.4-1.5-3.4-2.4-5.5-2.5
	c-2.1,0-4.1,0.8-5.7,2.3c-1,1-1.7,2.3-2.1,3.7v3.6c0.4,1.4,1.2,2.8,2.2,3.8C57.2,34,59.2,34.9,61.3,35z M56.3,22.1
	c2.8-2.6,7.2-2.3,9.8,0.5c2.6,2.8,2.3,7.2-0.5,9.8c-2.7,2.5-6.9,2.4-9.5-0.2C53.5,29.3,53.6,24.8,56.3,22.1z"/>
<path class="st0" d="M61.3,40.1c1.7,0,3.4-0.3,5-1c4.9-2,8.1-6.8,8-12.1c0-1.7-0.4-3.4-1.1-5c-1.4-3.1-3.9-5.6-7-7
	c-1.6-0.7-3.3-1.1-5-1.1c-1.7,0-3.4,0.3-5,1c-1,0.4-1.9,0.9-2.7,1.5v1.2c0.9-0.8,2-1.4,3.1-1.8c1.5-0.6,3.1-1,4.7-1
	c1.6,0,3.2,0.3,4.7,0.8c3.1,1.2,5.5,3.6,6.7,6.7c0.6,1.5,0.9,3.1,0.8,4.7c0,6.7-5.5,12.2-12.2,12.2c-1.6,0-3.2-0.3-4.7-0.8
	c-1.1-0.4-2.1-1-3-1.7v0.6c0.8,0.7,1.8,1.2,2.7,1.7C57.8,39.7,59.5,40.1,61.3,40.1z"/>
<path class="st0" d="M70.2,48.6C78.9,45,84.6,36.5,84.6,27c0-3.1-0.6-6.1-1.9-8.9c-2.5-5.6-7-10.1-12.6-12.6
	c-2.8-1.2-5.8-1.9-8.9-1.9c-2.6,0-5.2,0.5-7.7,1.4v1c2.5-0.9,5.1-1.4,7.7-1.4c3,0,5.9,0.5,8.6,1.6c2.8,1.1,5.3,2.7,7.4,4.8
	c2.1,2.1,3.7,4.6,4.8,7.3c1.1,2.8,1.6,5.7,1.6,8.6c0,6-2.4,11.7-6.6,15.9c-2.1,2.1-4.6,3.8-7.3,4.9c-2.7,1.1-5.6,1.7-8.6,1.7
	c-2.6,0-5.2-0.4-7.7-1.3v0.7c2.5,0.9,5.1,1.4,7.7,1.4C64.3,50.3,67.4,49.7,70.2,48.6z"/>
<path class="st0" d="M70.9,50.1c3-1.3,5.8-3.1,8.1-5.4c4.7-4.7,7.3-11.1,7.3-17.7c0-3.3-0.7-6.5-2-9.5c-2.6-6-7.4-10.8-13.5-13.4
	c-3-1.3-6.3-2-9.5-2c-2.6,0-5.2,0.4-7.7,1.2v1c2.5-0.8,5.1-1.3,7.7-1.3c3.2,0,6.3,0.6,9.3,1.7c6,2.3,10.7,7.1,13.1,13
	c1.2,3,1.8,6.1,1.7,9.3c0,13.4-10.8,24.2-24.2,24.2c-2.6,0-5.2-0.4-7.7-1.2v0.7c2.5,0.8,5.1,1.3,7.7,1.3
	C64.6,52,67.8,51.4,70.9,50.1z"/>
<path class="st0" d="M61.3,43.5c9.1,0,16.4-7.3,16.5-16.4c0,0,0-0.1,0-0.1c0-2.2-0.5-4.3-1.3-6.3c-1.8-3.9-4.9-7.1-8.9-8.9
	c-2-0.9-4.1-1.3-6.3-1.4c-2.2,0-4.3,0.4-6.3,1.2c-0.5,0.2-0.9,0.4-1.4,0.7v1.1c0.6-0.3,1.1-0.6,1.7-0.9c1.9-0.8,3.9-1.2,6-1.2
	c2.1,0,4.1,0.4,6,1.1c3.9,1.5,7,4.6,8.5,8.5c0.7,1.9,1.1,4,1.1,6c0,2.1-0.4,4.1-1.2,6c-0.8,1.9-2,3.6-3.4,5c-2.9,2.9-6.9,4.6-11,4.6
	c-2.1,0-4.1-0.4-6-1.1c-0.6-0.2-1.1-0.5-1.7-0.8v0.7c0.5,0.3,1,0.5,1.4,0.7C57,43,59.1,43.5,61.3,43.5z"/>
<path class="st0" d="M69.5,47c8.1-3.3,13.4-11.2,13.3-20c0-2.8-0.6-5.6-1.7-8.2c-2.3-5.2-6.4-9.4-11.6-11.7
	c-2.6-1.1-5.4-1.7-8.2-1.7c-2.6,0-5.3,0.5-7.7,1.4v1c2.5-1,5.1-1.5,7.7-1.5c2.7,0,5.5,0.5,8,1.5c5.2,2,9.2,6.1,11.3,11.3
	c1,2.6,1.5,5.3,1.5,8C82,38.5,72.7,47.8,61.3,47.8c-2.6,0-5.2-0.5-7.7-1.4v0.7c2.4,1,5.1,1.5,7.7,1.5C64.1,48.7,66.9,48.1,69.5,47z"
	/>
<path class="st0" d="M61.3,46.9c8.1,0,15.3-4.8,18.4-12.3c1-2.4,1.5-5,1.5-7.6c0-2.6-0.6-5.2-1.6-7.6c-2.1-4.8-5.9-8.6-10.7-10.7
	c-2.4-1.1-5-1.6-7.6-1.6c-2.6,0-5.2,0.5-7.6,1.5h-0.1v1L54,9.4C56.3,8.5,58.8,8,61.3,8c2.5,0,5,0.4,7.3,1.3
	c4.7,1.8,8.5,5.6,10.4,10.3c0.9,2.3,1.4,4.8,1.4,7.3c0,7.7-4.7,14.6-11.8,17.6c-2.3,1-4.8,1.5-7.3,1.5c-2.5,0-5-0.4-7.3-1.4
	l-0.4-0.2v0.7l0.1,0.1C56.1,46.4,58.7,46.9,61.3,46.9z"/>
<path class="st0" d="M61.3,45.2c10,0,18.2-8.1,18.2-18.1c0,0,0-0.1,0-0.1c0-2.4-0.5-4.8-1.5-7c-1-2.2-2.3-4.1-4-5.8
	c-1.7-1.7-3.6-3-5.8-4c-2.2-1-4.5-1.5-6.9-1.5c-2.4,0-4.8,0.5-7,1.4c-0.3,0.1-0.5,0.2-0.7,0.4v1c0.4-0.2,0.7-0.4,1.1-0.5
	c2.1-0.9,4.3-1.3,6.6-1.3c2.3,0,4.5,0.4,6.7,1.2c4.3,1.7,7.8,5.1,9.4,9.4c0.8,2.1,1.2,4.4,1.2,6.7c0,7-4.3,13.3-10.7,16
	c-2.1,0.9-4.4,1.3-6.6,1.3c-2.3,0-4.5-0.4-6.6-1.2c-0.4-0.1-0.7-0.3-1-0.5v0.7c0.3,0.1,0.5,0.3,0.8,0.4
	C56.6,44.7,58.9,45.2,61.3,45.2z"/>
</svg>
