<svg width="126" height="80" viewBox="0 0 126 80" fill="none" xmlns="http://www.w3.org/2000/svg">
<g clip-path="url(#clip0)">
<path d="M85.33 0.00999839C94.6618 -0.142952 103.752 2.98189 111.017 8.84043C118.282 14.699 123.263 22.9201 125.091 32.0723C126.919 41.2246 125.48 50.7282 121.023 58.9284C116.566 67.1286 109.374 73.5059 100.7 76.95C95.8035 78.8508 90.5814 79.7715 85.33 79.66V79.38C90.5001 79.2561 95.5958 78.1214 100.33 76.04C105.046 74.0168 109.317 71.0843 112.9 67.41C116.471 63.752 119.308 59.4445 121.26 54.72C125.127 45.1733 125.127 34.4967 121.26 24.95C119.304 20.2397 116.466 15.9462 112.9 12.3C105.612 4.87902 95.7277 0.57686 85.33 0.299999V0.00999839Z" fill="white"/>
<path d="M85.33 2.77991C90.2577 2.67317 95.1569 3.55339 99.7393 5.36873C104.322 7.18407 108.494 9.89785 112.012 13.3503C115.53 16.8027 118.321 20.9241 120.222 25.4716C122.123 30.0192 123.095 34.9011 123.08 39.8299C123.114 44.7641 122.155 49.6548 120.261 54.2112C118.367 58.7676 115.576 62.8967 112.055 66.353C108.533 69.8093 104.353 72.5223 99.7616 74.3307C95.1705 76.1391 90.2628 77.006 85.33 76.8799V76.5999C94.9847 76.3229 104.159 72.3284 110.94 65.4499C114.253 62.0454 116.887 58.0406 118.7 53.6499C122.271 44.7825 122.271 34.8773 118.7 26.0099C116.886 21.6223 114.253 17.6208 110.94 14.2199C104.159 7.34141 94.9847 3.34691 85.33 3.06991V2.77991Z" fill="white"/>
<path d="M85.33 5.56002C93.372 5.41515 101.21 8.09864 107.475 13.1422C113.741 18.1858 118.036 25.2693 119.613 33.1567C121.189 41.044 119.946 49.2344 116.1 56.2988C112.254 63.3631 106.05 68.8528 98.57 71.81C94.3489 73.4317 89.8506 74.2097 85.33 74.1V73.82C94.2636 73.5529 102.75 69.849 109.02 63.48C112.072 60.3356 114.498 56.6401 116.17 52.59C119.476 44.4046 119.476 35.2554 116.17 27.07C114.496 23.0212 112.069 19.3261 109.02 16.18C102.762 9.8181 94.2899 6.11753 85.37 5.85002L85.33 5.56002Z" fill="white"/>
<path d="M85.33 8.29995C91.6735 8.14897 97.9151 9.91487 103.239 13.3669C108.563 16.819 112.722 21.7966 115.173 27.6496C117.624 33.5025 118.252 39.9586 116.976 46.1742C115.7 52.3899 112.579 58.0761 108.02 62.49C105.031 65.4176 101.479 67.708 97.5787 69.2224C93.6785 70.7367 89.5114 71.4435 85.33 71.2999V71.0099C93.5117 70.7552 101.28 67.3562 107.02 61.52C109.815 58.6297 112.037 55.2367 113.57 51.52C116.597 44.017 116.597 35.6329 113.57 28.1299C112.04 24.412 109.817 21.0185 107.02 18.1299C104.206 15.2284 100.849 12.9078 97.14 11.2999C93.4168 9.63918 89.405 8.72199 85.33 8.59995V8.29995Z" fill="white"/>
<path d="M85.33 11.12C89.1404 10.9849 92.9387 11.6243 96.495 12.9993C100.051 14.3744 103.292 16.4566 106.02 19.12C110.218 23.1282 113.101 28.3159 114.289 33.9975C115.476 39.6791 114.911 45.5873 112.669 50.9412C110.427 56.295 106.614 60.8427 101.732 63.9832C96.8509 67.1236 91.1316 68.7091 85.33 68.53V68.3C92.7714 68.0111 99.8186 64.8794 105.02 59.55C107.57 56.925 109.605 53.8451 111.02 50.47C113.753 43.6434 113.753 36.0265 111.02 29.2C109.608 25.8205 107.572 22.7369 105.02 20.11C99.7977 14.7985 92.7434 11.6827 85.3 11.4L85.33 11.12Z" fill="white"/>
<path d="M85.33 13.9C90.5556 13.7811 95.6958 15.24 100.08 18.0863C104.464 20.9326 107.888 25.0342 109.906 29.856C111.924 34.6777 112.442 39.9957 111.392 45.1161C110.342 50.2365 107.773 54.9216 104.02 58.56C101.522 60.9612 98.5763 62.8471 95.35 64.11C92.1575 65.3126 88.7599 65.8766 85.35 65.77V65.49C92.056 65.2097 98.4033 62.3848 103.1 57.59C105.381 55.2194 107.196 52.4412 108.45 49.4C110.903 43.2558 110.903 36.4042 108.45 30.26C107.198 27.2207 105.383 24.4453 103.1 22.08C98.4103 17.2752 92.0588 14.4483 85.35 14.18L85.33 13.9Z" fill="white"/>
<path d="M85.33 16.6701C88.3962 16.5564 91.4547 17.0491 94.33 18.1201C98.7134 19.814 102.482 22.7948 105.139 26.6706C107.796 30.5464 109.219 35.1357 109.219 39.8351C109.219 44.5344 107.796 49.1237 105.139 52.9995C102.482 56.8753 98.7134 59.8562 94.33 61.5501C91.4528 62.6131 88.3953 63.1023 85.33 62.9901V62.7101C88.3097 62.5887 91.2374 61.8891 93.95 60.6501C96.6416 59.4641 99.0768 57.7659 101.12 55.6501C103.149 53.5206 104.757 51.0269 105.86 48.3001C108.031 42.8413 108.031 36.7588 105.86 31.3001C104.75 28.595 103.142 26.1223 101.12 24.0101C96.9459 19.7318 91.3011 17.2007 85.33 16.9301V16.6701Z" fill="white"/>
<path d="M85.33 19.45C88.0468 19.3176 90.7619 19.7455 93.3063 20.7072C95.8506 21.6689 98.17 23.1437 100.12 25.04C102.613 27.4311 104.462 30.4135 105.494 33.7101C106.526 37.0067 106.708 40.5107 106.024 43.8966C105.339 47.2825 103.811 50.4406 101.579 53.0776C99.3477 55.7146 96.4861 57.7449 93.26 58.98C90.7232 59.9072 88.0285 60.3251 85.33 60.21V59.93C87.9468 59.8144 90.5155 59.1858 92.89 58.08C95.2471 57.0327 97.3743 55.5307 99.15 53.66C100.915 51.8148 102.322 49.6583 103.3 47.3C105.193 42.5172 105.193 37.1929 103.3 32.41C102.324 30.0446 100.917 27.8812 99.15 26.03C97.3743 24.1593 95.2471 22.6573 92.89 21.61C90.5155 20.5042 87.9468 19.8757 85.33 19.76V19.45Z" fill="white"/>
<path d="M85.33 22.2301C87.6643 22.0896 90.0026 22.4299 92.2 23.2301C95.0041 24.2891 97.4942 26.0415 99.4377 28.3235C101.381 30.6055 102.715 33.3428 103.314 36.2797C103.913 39.2167 103.758 42.2576 102.864 45.1185C101.97 47.9795 100.365 50.5672 98.2 52.6401C96.4666 54.2756 94.4277 55.5533 92.2 56.4001C90.0015 57.1955 87.6641 57.5358 85.33 57.4001V57.1101C87.5769 56.974 89.7783 56.4177 91.82 55.4701C93.8406 54.561 95.6646 53.2669 97.19 51.6601C98.6991 50.0645 99.8994 48.2031 100.73 46.1701C102.344 42.0698 102.344 37.5103 100.73 33.4101C99.8993 31.3801 98.699 29.5219 97.19 27.9301C95.665 26.3202 93.841 25.0227 91.82 24.1101C89.7766 23.1671 87.5761 22.611 85.33 22.4701V22.2301Z" fill="white"/>
<path d="M85.33 25.0101C87.2988 24.87 89.275 25.146 91.13 25.8201C93.0104 26.521 94.731 27.5922 96.19 28.9701C98.024 30.7216 99.3839 32.9096 100.143 35.3294C100.902 37.7492 101.034 40.3219 100.529 42.8071C100.024 45.2922 98.8964 47.6086 97.2527 49.5399C95.609 51.4711 93.5025 52.954 91.13 53.8501C89.2726 54.5145 87.2984 54.7902 85.33 54.6601V54.3701C87.2122 54.2365 89.0534 53.7551 90.76 52.9501C92.8385 51.9917 94.6592 50.5527 96.0717 48.7518C97.4843 46.951 98.4483 44.8399 98.884 42.593C99.3197 40.3461 99.2146 38.0277 98.5776 35.8294C97.9405 33.6311 96.7896 31.6158 95.22 29.9501C93.9579 28.5983 92.4426 27.5077 90.76 26.7401C89.0546 25.9284 87.2135 25.4401 85.33 25.3001V25.0101Z" fill="white"/>
<path d="M85.33 27.79C86.9339 27.6521 88.5489 27.8531 90.07 28.38C92.4264 29.2286 94.4635 30.7836 95.9035 32.8328C97.3434 34.8819 98.1161 37.3255 98.1161 39.83C98.1161 42.3345 97.3434 44.778 95.9035 46.8272C94.4635 48.8763 92.4264 50.4313 90.07 51.28C88.5507 51.8149 86.9347 52.0195 85.33 51.88V51.6C86.8479 51.4578 88.328 51.0446 89.7 50.38C91.0434 49.7469 92.2522 48.8608 93.26 47.77C95.2654 45.6143 96.3802 42.7792 96.3802 39.835C96.3802 36.8907 95.2654 34.0557 93.26 31.9C92.2568 30.8066 91.0468 29.9229 89.7 29.3C88.3314 28.6263 86.8497 28.2126 85.33 28.08V27.79Z" fill="white"/>
<path d="M16.02 0.149902H0V79.5199H16.02V0.149902Z" fill="white"/>
<path d="M78.81 0.149902H62.79V79.5199H78.81V0.149902Z" fill="white"/>
<path d="M28.04 25.79L16.02 36.86L38.53 79.52H55.63L28.04 25.79Z" fill="white"/>
<path d="M39.74 34.5299L32.95 21.2799L55.91 0.149902H77.12L39.74 34.5299Z" fill="white"/>
</g>
<defs>
<clipPath id="clip0">
<rect width="125.86" height="79.67" fill="white"/>
</clipPath>
</defs>
</svg>
