<svg width="21" height="21" viewBox="0 0 21 21" fill="none" xmlns="http://www.w3.org/2000/svg">
<path fill-rule="evenodd" clip-rule="evenodd" d="M12 1H9V9L1 9V12H9V20H12V12H20V9L12 9V1Z" fill="white"/>
<path d="M9 1V0.625H8.625V1H9ZM12 1H12.375V0.625H12V1ZM9 9L9 9.375L9.375 9.375V9H9ZM1 9L1 8.625L0.625 8.625V9H1ZM1 12H0.625V12.375H1V12ZM9 12H9.375V11.625H9V12ZM9 20H8.625V20.375H9V20ZM12 20V20.375H12.375V20H12ZM12 12V11.625H11.625V12H12ZM20 12V12.375H20.375V12H20ZM20 9H20.375V8.625L20 8.625L20 9ZM12 9H11.625V9.375L12 9.375L12 9ZM9 1.375H12V0.625H9V1.375ZM9.375 9V1H8.625V9H9.375ZM1 9.375L9 9.375L9 8.625L1 8.625L1 9.375ZM1.375 12V9H0.625V12H1.375ZM9 11.625H1V12.375H9V11.625ZM9.375 20V12H8.625V20H9.375ZM12 19.625H9V20.375H12V19.625ZM11.625 12V20H12.375V12H11.625ZM20 11.625H12V12.375H20V11.625ZM19.625 9V12H20.375V9H19.625ZM12 9.375L20 9.375L20 8.625L12 8.625L12 9.375ZM11.625 1V9H12.375V1H11.625Z" fill="black"/>
</svg>
