<svg width="21" height="21" viewBox="0 0 21 21" fill="none" xmlns="http://www.w3.org/2000/svg">
<path fill-rule="evenodd" clip-rule="evenodd" d="M8.99261 18.4853L11.9926 18.4853L11.9926 6.7427L16.8565 11.6066L18.9778 9.48529L10.4926 1.00001L8.37124 3.12133L8.37125 3.12134L2.00728 9.48531L4.1286 11.6066L8.99261 6.74262L8.99261 18.4853Z" fill="white"/>
<path d="M11.9926 18.4853L11.9926 18.8603L12.3676 18.8603L12.3676 18.4853L11.9926 18.4853ZM8.99261 18.4853L8.61761 18.4853L8.61761 18.8603L8.99261 18.8603L8.99261 18.4853ZM11.9926 6.7427L12.2578 6.47754L11.6176 5.83737L11.6176 6.7427L11.9926 6.7427ZM16.8565 11.6066L16.5914 11.8718L16.8565 12.1369L17.1217 11.8718L16.8565 11.6066ZM18.9778 9.48529L19.243 9.75046L19.5082 9.48529L19.243 9.22013L18.9778 9.48529ZM10.4926 1.00001L10.7577 0.734844L10.4926 0.469679L10.2274 0.734844L10.4926 1.00001ZM8.37124 3.12133L8.10608 2.85616L7.84091 3.12133L8.10608 3.38649L8.37124 3.12133ZM8.37125 3.12134L8.63642 3.3865L8.90158 3.12134L8.63642 2.85617L8.37125 3.12134ZM2.00728 9.48531L1.74211 9.22014L1.47695 9.48531L1.74211 9.75047L2.00728 9.48531ZM4.1286 11.6066L3.86344 11.8718L4.1286 12.137L4.39377 11.8718L4.1286 11.6066ZM8.99261 6.74262L9.36761 6.74262L9.36761 5.83729L8.72745 6.47745L8.99261 6.74262ZM11.9926 18.1103L8.99261 18.1103L8.99261 18.8603L11.9926 18.8603L11.9926 18.1103ZM11.6176 6.7427L11.6176 18.4853L12.3676 18.4853L12.3676 6.7427L11.6176 6.7427ZM11.7274 7.00787L16.5914 11.8718L17.1217 11.3414L12.2578 6.47754L11.7274 7.00787ZM17.1217 11.8718L19.243 9.75046L18.7127 9.22013L16.5914 11.3414L17.1217 11.8718ZM19.243 9.22013L10.7577 0.734844L10.2274 1.26517L18.7127 9.75046L19.243 9.22013ZM10.2274 0.734844L8.10608 2.85616L8.63641 3.38649L10.7577 1.26517L10.2274 0.734844ZM8.10608 3.38649L8.10609 3.3865L8.63642 2.85617L8.63641 2.85616L8.10608 3.38649ZM8.10609 2.85617L1.74211 9.22014L2.27244 9.75047L8.63642 3.3865L8.10609 2.85617ZM1.74211 9.75047L3.86344 11.8718L4.39377 11.3415L2.27244 9.22014L1.74211 9.75047ZM4.39377 11.8718L9.25778 7.00778L8.72745 6.47745L3.86344 11.3415L4.39377 11.8718ZM9.36761 18.4853L9.36761 6.74262L8.61761 6.74262L8.61761 18.4853L9.36761 18.4853Z" fill="black"/>
</svg>
