<svg width="34" height="34" viewBox="0 0 34 34" fill="none" xmlns="http://www.w3.org/2000/svg">
<path d="M21.5753 15.8313C20.3601 15.8313 19.7358 16.7875 19.7358 18.2352C19.7358 19.6032 20.4065 20.6258 21.5753 20.6258C22.8968 20.6258 23.3882 19.4172 23.3882 18.2352C23.3882 17 22.764 15.8313 21.5753 15.8313Z" fill="#A8A8A8"/>
<path d="M17 0C7.61016 0 0 7.61016 0 17C0 26.3898 7.61016 34 17 34C26.3898 34 34 26.3898 34 17C34 7.61016 26.3898 0 17 0ZM22.007 21.8078C21.1172 21.8078 20.1676 21.582 19.7359 20.6922H19.7094V21.6285H18.3348V12.2573L13.2746 21.602H2.41719L7.49063 12.2453H18.3348V12.2573L18.3414 12.2453H19.7824V15.7117H19.809C20.2008 15.0543 21.0309 14.6492 21.7613 14.6492C23.8332 14.6492 24.8359 16.2762 24.8359 18.2617C24.8359 20.0879 23.9461 21.8078 22.007 21.8078ZM28.6078 21.8012C26.5492 21.8012 25.4203 20.2938 25.4203 18.2949C25.4203 16.243 26.5027 14.6426 28.6609 14.6426C30.1816 14.6426 31.4832 15.4328 31.6227 17.0996L30.175 17.1063C30.0621 16.2762 29.4777 15.8312 28.6742 15.8312C27.9238 15.8312 26.868 16.2363 26.868 18.3016C26.868 19.4305 27.3527 20.6258 28.6078 20.6258C29.4445 20.6258 30.0289 20.048 30.1684 19.0719H31.616C31.3504 20.8316 30.2945 21.8012 28.6078 21.8012Z" fill="#A8A8A8"/>
</svg>
